<?xml version="1.0" encoding="UTF-8"?><svg id="a" xmlns="http://www.w3.org/2000/svg" viewBox="0 0 24 24"><path d="M11.26,21.27c-.06.53-.07,1.05-.09,1.58,0,.19-.11.4,0,.61.31,0,1.56.22,1.63-.16l-.12-2.03c7.21-.36,11.9-8.19,8.83-14.76C18.28-.59,8.43-1.65,3.69,4.52c-5.08,6.5-.63,16.3,7.57,16.76ZM12.02,15.27c-.07.02-.08-.04-.11-.08-.28-.41-.62-.77-1-1.09-4.09-3.02,1.61-7.16,3.5-3.01.56,2-1.53,2.77-2.39,4.18ZM11.1,1.44c12.6-1.17,14.08,18.19,1.44,18.82v-3.07l2.61.03c.26-.09.24-.8.07-.99h-2.59c1.28-1.95,3.63-2.91,2.75-5.77,1.64.93,2.54,3.03,2.63,4.85.08.14.81.14.89-.03.08-.19.02-.28,0-.45-.14-2.95-2.23-5.3-4.99-6.18,1.57-.76,2.59-2.44,2.43-4.21.01-.77-.88-.36-1.32-.25.88,4.63-6.43,5.13-6.14.43.02-.2.18-.36-.03-.47-.18-.09-.96-.23-1.09-.1-.04.04-.09.24-.1.31-.23,1.67.8,3.47,2.25,4.22.05.04.08.07.07.14-2.55.61-4.7,3.17-4.9,5.79-.01.14-.03.67,0,.77.05.15.89.26.95-.13-.03-1.83.98-3.69,2.52-4.69-.37,1.13-.12,2.3.58,3.25.66.93,1.73,1.48,2.17,2.52h-2.54c-.25,0-.17.79-.11.96h2.75v3.07C-.01,19.84-.41,2.38,11.1,1.44Z" fill="currentColor"/><path d="M11.75,10.61c-2.02.59-.41,3.49,1.11,1.98.7-.85-.01-2.17-1.11-1.98Z"/></svg>